<svg width="77" height="68" viewBox="0 0 77 68" fill="none" xmlns="http://www.w3.org/2000/svg">
    <path d="M0.0636016 36.1275C0.238509 34.6324 0.302114 33.1215 0.588326 31.6583C2.09889 23.547 5.77193 16.5809 11.7188 10.8553C18.0313 4.77976 25.5523 1.21717 34.2977 0.262899C35.2358 0.167472 35.84 0.0879462 36.7941 0.0402328C37.7481 0.00842384 38.3205 -0.0233812 39.1792 0.0243322C39.7039 0.0402366 40.324 0.0879462 40.7215 0.119755C42.6614 0.294704 44.6172 0.501466 46.5253 0.899078C65.9877 4.97062 79.7099 23.6902 76.5457 44.4455C75.1941 53.2566 71.1395 60.6998 64.652 66.8072C64.1909 67.2525 63.6821 67.666 63.3005 68C62.1556 67.3638 61.138 66.7595 60.1044 66.2187C56.4314 64.3579 52.7424 62.5289 49.0694 60.6839C47.3044 59.7933 46.3504 58.3778 46.3504 56.3579C46.3504 54.9743 46.3345 53.5906 46.3663 52.2069C46.3663 51.8888 46.4776 51.4912 46.6684 51.2526C48.6242 48.7556 50.0711 46.0041 51.1365 43.0141C51.2319 42.7278 51.5181 42.4256 51.7884 42.2825C53.3148 41.4714 54.0781 40.2308 54.0781 38.5131C54.0781 36.9068 54.0781 35.3004 54.0781 33.6941C54.0781 32.6921 53.7601 31.8333 53.1558 31.0539C52.9809 30.8313 52.8219 30.5291 52.806 30.2587C52.7901 27.873 52.7106 25.4874 52.8219 23.1017C53.0286 18.728 50.8662 14.9904 46.891 13.1296C44.9352 12.2071 42.8522 11.8095 40.7215 11.6346C37.5573 11.3801 34.4567 11.5551 31.4356 12.5889C26.2997 14.3383 24.169 18.2986 24.169 22.72C24.169 25.1852 24.2008 27.6504 24.2008 30.0997C24.2008 30.4178 24.0418 30.7836 23.851 31.038C23.2626 31.8333 22.9287 32.6921 22.9287 33.6941C22.9446 35.3322 22.9287 36.9545 22.9287 38.5927C22.9287 39.8491 23.4057 40.867 24.328 41.7258C24.5665 41.9485 24.7732 42.2666 24.8686 42.5847C25.7113 45.7497 27.1583 48.6284 29.0823 51.2685C29.2572 51.5071 29.3844 51.857 29.4003 52.1433C29.4321 53.5269 29.448 54.9106 29.4003 56.2943C29.3526 58.0756 28.5894 59.507 27.0152 60.3818C22.5471 62.8629 18.0631 65.3122 13.3565 67.8887C12.164 66.6322 10.7965 65.3121 9.54039 63.8648C4.24548 57.7893 1.11304 50.7596 0.23851 42.7278C0.143106 41.7894 0 40.8352 0 39.8968"
          fill="#D2D7DB"/>
</svg>
