<svg width="21" height="20" viewBox="0 0 21 20" fill="none" xmlns="http://www.w3.org/2000/svg">
    <path d="M13.8327 4.99984C13.8327 4.11578 13.4814 3.26793 12.8563 2.64281C12.2312 2.01769 11.3834 1.6665 10.4993 1.6665C9.61529 1.6665 8.7675 2.01769 8.14237 2.64281C7.51725 3.26793 7.16602 4.11578 7.16602 4.99984V6.6665C7.16602 7.55056 7.51725 8.39841 8.14237 9.02353C8.7675 9.64865 9.61529 9.99984 10.4993 9.99984C11.3834 9.99984 12.2312 9.64865 12.8563 9.02353C13.4814 8.39841 13.8327 7.55056 13.8327 6.6665V4.99984Z"
          stroke="white" stroke-width="2" stroke-miterlimit="10"/>
    <path d="M3 18.3333C4.26667 14.9 7.16667 12.5 10.5 12.5" stroke="white" stroke-width="2" stroke-miterlimit="10"/>
    <path d="M18.8327 15H12.166" stroke="white" stroke-width="2" stroke-miterlimit="10"/>
    <path d="M15.5 18.3332V11.6665" stroke="white" stroke-width="2" stroke-miterlimit="10"/>
</svg>
