<svg width="11" height="11" viewBox="0 0 11 11" fill="none" xmlns="http://www.w3.org/2000/svg">
    <path d="M11 1.72806C10.9866 1.77802 10.9808 1.83182 10.9597 1.87601C10.8983 2.0009 10.8523 2.145 10.7602 2.24299C10.5147 2.50813 10.2462 2.75215 9.99297 3C9.3312 2.33713 8.66176 1.66658 8 1.00371C8.24552 0.750093 8.48529 0.477261 8.75384 0.23517C9.11061 -0.0837753 9.70716 -0.0760899 10.0639 0.244776C10.3075 0.463811 10.532 0.703981 10.7602 0.940307C10.9003 1.08633 10.9559 1.27654 11 1.46868C11 1.55706 11 1.64352 11 1.72806Z"
          fill="black"/>
    <path d="M6.68318 2C7.45766 2.77457 8.22552 3.54251 9 4.31708C8.97573 4.34135 8.95146 4.37004 8.92498 4.39652C6.98326 6.33845 5.03933 8.28259 3.09541 10.2223C3.03363 10.2841 2.94757 10.3304 2.86373 10.3525C2.01864 10.5688 1.16913 10.7784 0.321839 10.9881C0.0945692 11.0432 -0.0444403 10.902 0.0129287 10.6747C0.224753 9.81627 0.438783 8.96006 0.65502 8.10164C0.670466 8.03985 0.70577 7.97585 0.7499 7.93172C2.70706 5.96993 4.66864 4.01034 6.62801 2.04855C6.64567 2.03089 6.66332 2.01545 6.68318 2Z"
          fill="black"/>
</svg>
