<svg width="15" height="14" viewBox="0 0 15 14" fill="none" xmlns="http://www.w3.org/2000/svg">
    <path d="M13.3242 2.1875H1.94922C1.70723 2.1875 1.51172 2.38301 1.51172 2.625V11.375C1.51172 11.617 1.70723 11.8125 1.94922 11.8125H13.3242C13.5662 11.8125 13.7617 11.617 13.7617 11.375V2.625C13.7617 2.38301 13.5662 2.1875 13.3242 2.1875ZM12.7773 3.70234V10.8281H2.49609V3.70234L2.11875 3.4084L2.65605 2.71797L3.24121 3.17324H12.0336L12.6188 2.71797L13.1561 3.4084L12.7773 3.70234ZM12.0336 3.17188L7.63672 6.58984L3.23984 3.17188L2.65469 2.7166L2.11738 3.40703L2.49473 3.70098L7.16504 7.33223C7.29935 7.43657 7.46459 7.49321 7.63467 7.49321C7.80475 7.49321 7.96999 7.43657 8.1043 7.33223L12.7773 3.70234L13.1547 3.4084L12.6174 2.71797L12.0336 3.17188Z"
          fill="#575757"/>
</svg>
