<svg width="15" height="16" viewBox="0 0 15 16" fill="none" xmlns="http://www.w3.org/2000/svg">
    <g clip-path="url(#clip0_222_20)">
        <path d="M3.86082 3.9738L4.49255 3.58268C4.78008 3.40449 5.12263 3.33702 5.45626 3.39287C5.78988 3.44872 6.09178 3.62408 6.3056 3.8862L6.98813 4.72292C7.17202 4.94831 7.28074 5.22563 7.29901 5.51595C7.31728 5.80628 7.24419 6.09504 7.09 6.34171L6.52947 7.23863C6.52255 7.24973 6.51772 7.262 6.51522 7.27484C6.47979 7.4556 6.71296 7.85056 7.25794 8.39581C7.87248 9.01026 8.2736 9.2107 8.412 9.12614L9.31227 8.56324C9.55887 8.40926 9.84747 8.33631 10.1376 8.3546C10.4278 8.37289 10.7049 8.48151 10.9302 8.66524L11.7634 9.34401C12.025 9.55714 12.2004 9.85798 12.2569 10.1906C12.3134 10.5233 12.2472 10.8652 12.0706 11.1527L11.6803 11.7875C11.5446 12.0084 11.3575 12.1933 11.135 12.3262C10.9124 12.4592 10.6609 12.5363 10.4021 12.5511C8.86498 12.6381 7.24643 11.8153 5.54216 10.1112C3.83714 8.40595 3.01376 6.78526 3.10297 5.24704C3.11789 4.98952 3.19459 4.73938 3.32657 4.51774C3.45855 4.29611 3.64194 4.1095 3.86124 3.97369L3.86082 3.9738ZM4.19977 4.52012C4.06818 4.60159 3.95813 4.71354 3.87892 4.84651C3.79972 4.97948 3.75368 5.12956 3.74471 5.28407C3.66772 6.60959 4.40875 8.06866 5.99671 9.65663C7.58352 11.2436 9.04121 11.9844 10.3654 11.9091C10.5208 11.9003 10.6717 11.854 10.8053 11.7741C10.9389 11.6943 11.0512 11.5833 11.1326 11.4506L11.5226 10.8164C11.6177 10.6616 11.6534 10.4775 11.623 10.2983C11.5927 10.1192 11.4983 9.95715 11.3574 9.84235L10.5241 9.16318C10.4028 9.06427 10.2536 9.00578 10.0974 8.99592C9.94122 8.98606 9.78584 9.02531 9.65307 9.10818L8.75053 9.67257C8.24995 9.98019 7.61682 9.66399 6.80327 8.84996C6.1143 8.16139 5.79346 7.61643 5.8845 7.15145C5.90212 7.06154 5.93592 6.97573 5.9843 6.89798L6.54483 6.00106C6.6279 5.86823 6.66728 5.71271 6.65746 5.55635C6.64763 5.39999 6.58908 5.25064 6.49004 5.12925L5.80762 4.29295C5.69248 4.15176 5.52988 4.05732 5.3502 4.02724C5.17052 3.99717 4.98603 4.03353 4.83119 4.12952L4.19947 4.52064L4.19977 4.52012Z"
              fill="black"/>
    </g>
    <defs>
        <clipPath id="clip0_222_20">
            <rect width="12" height="12" fill="white" transform="translate(0.289062 3.75735) rotate(-15)"/>
        </clipPath>
    </defs>
</svg>
