<svg width="24" height="24" viewBox="0 0 24 24" fill="none" xmlns="http://www.w3.org/2000/svg">
    <path d="M18.75 5L19.226 5.153C19.2837 4.97363 19.2356 4.77706 19.1016 4.64455C18.9677 4.51204 18.7706 4.46608 18.5919 4.52566L18.75 5ZM14.4755 18.2983L13.9995 18.1453L14.4755 18.2983ZM5.90039 9.75015L6.07988 9.28348L5.90039 9.75015ZM5.7209 10.2168L11.5705 12.4667L11.9295 11.5333L6.07988 9.28348L5.7209 10.2168ZM11.2791 12.1682L13.5312 18.4741L14.473 18.1377L12.2209 11.8318L11.2791 12.1682ZM14.9516 18.4513L19.226 5.153L18.274 4.847L13.9995 18.1453L14.9516 18.4513ZM18.5919 4.52566L5.75296 8.8053L6.06919 9.75398L18.9081 5.47434L18.5919 4.52566ZM12.1036 12.3536L19.1036 5.35355L18.3964 4.64645L11.3964 11.6464L12.1036 12.3536ZM13.5312 18.4741C13.7723 19.1491 14.7322 19.1337 14.9516 18.4513L13.9995 18.1453C14.0726 17.9178 14.3926 17.9127 14.473 18.1377L13.5312 18.4741ZM6.07988 9.28348C6.29879 9.36767 6.2917 9.67981 6.06919 9.75398L5.75296 8.8053C5.08542 9.02781 5.06416 9.96423 5.7209 10.2168L6.07988 9.28348Z"
          fill="#697E92"/>
</svg>
