<svg width="14" height="14" viewBox="0 0 14 14" fill="none" xmlns="http://www.w3.org/2000/svg">
    <path d="M7.73728 0C7.94609 0.0695561 8.15491 0.150095 8.27581 0.347781C8.35274 0.47591 8.41502 0.626005 8.44799 0.772439C8.51027 1.04334 8.53958 1.31791 8.59453 1.59247C8.60552 1.64372 8.65681 1.70229 8.70077 1.72426C8.96821 1.84141 9.23564 1.95123 9.50674 2.0574C9.55436 2.0757 9.6313 2.06838 9.67526 2.04275C9.90972 1.88534 10.1369 1.71694 10.3677 1.55586C10.7743 1.27031 11.1993 1.30692 11.5546 1.6547C11.8257 1.91829 12.0932 2.18553 12.3569 2.45643C12.705 2.81153 12.7416 3.23619 12.4558 3.64254C12.2946 3.86952 12.1371 4.09649 11.9686 4.3198C11.9173 4.3857 11.9173 4.44061 11.9503 4.51749C12.0602 4.76276 12.1628 5.0117 12.258 5.26064C12.291 5.34484 12.3386 5.37779 12.4229 5.38877C12.7269 5.43636 13.0347 5.48395 13.3351 5.54985C13.7307 5.63771 13.9872 5.95986 13.9945 6.36622C14.0018 6.78355 14.0018 7.20455 13.9945 7.62189C13.9872 8.06485 13.6868 8.39799 13.2398 8.47486C12.9577 8.52246 12.672 8.56273 12.3936 8.61764C12.3423 8.62862 12.2837 8.67987 12.2617 8.72746C12.1481 8.98006 12.0492 9.23998 11.9393 9.49258C11.9063 9.5658 11.9173 9.61339 11.9613 9.67562C12.1225 9.89527 12.28 10.1186 12.4375 10.3419C12.7343 10.7629 12.7013 11.1876 12.3423 11.5536C12.0785 11.8209 11.8147 12.0845 11.551 12.3444C11.1883 12.6995 10.7633 12.7324 10.353 12.4432C10.1259 12.2821 9.89873 12.1247 9.67526 11.9563C9.61298 11.9087 9.56169 11.9087 9.49209 11.9417C9.24297 12.0515 8.99019 12.1577 8.73741 12.2529C8.65681 12.2821 8.6275 12.3297 8.61651 12.4103C8.56522 12.7214 8.52126 13.0326 8.45166 13.3365C8.3674 13.7172 8.04867 13.9808 7.66034 13.9918C7.22439 14.0027 6.78477 14.0027 6.34882 13.9918C5.92385 13.9808 5.60147 13.6806 5.5282 13.2523C5.48057 12.974 5.43295 12.6958 5.38898 12.4176C5.37799 12.3334 5.34502 12.2821 5.2571 12.2529C5.01531 12.1613 4.77718 12.0625 4.53906 11.9563C4.46945 11.927 4.41816 11.9234 4.35588 11.971C4.12508 12.143 3.89062 12.3078 3.65616 12.4688C3.2605 12.7471 2.8392 12.7178 2.49117 12.381C2.20908 12.1101 1.93066 11.8319 1.65956 11.55C1.32618 11.2022 1.29321 10.7775 1.57163 10.3822C1.72916 10.1552 1.89402 9.92822 2.05888 9.70491C2.11017 9.63535 2.1065 9.5841 2.07353 9.50722C1.96363 9.26561 1.85739 9.02399 1.7658 8.77871C1.73283 8.68719 1.6852 8.65059 1.59362 8.63594C1.32252 8.59201 1.05508 8.54442 0.783985 8.50049C0.384666 8.4346 0.124559 8.2186 0.0219811 7.81957C0.0183176 7.80859 0.00732697 7.79761 0 7.78662C0 7.27777 0 6.76525 0 6.25639C0.0109905 6.23809 0.0219805 6.21612 0.0293074 6.19782C0.135548 5.82807 0.388329 5.61574 0.75834 5.54985C1.03677 5.49859 1.31519 5.46199 1.58995 5.40707C1.63758 5.39609 1.69986 5.3485 1.71817 5.30091C1.83174 5.04465 1.93798 4.78107 2.0369 4.52115C2.05521 4.47722 2.04789 4.404 2.02224 4.36739C1.86105 4.12578 1.6852 3.89148 1.52035 3.65353C1.24192 3.25083 1.27489 2.82618 1.6156 2.47839C1.88303 2.20383 2.15413 1.93659 2.42889 1.66935C2.78791 1.31791 3.21654 1.28496 3.62685 1.57783C3.84666 1.73158 4.06647 1.889 4.27895 2.05008C4.34855 2.10133 4.40351 2.11231 4.48777 2.07204C4.72956 1.96221 4.97867 1.85605 5.22779 1.76087C5.30839 1.73158 5.34136 1.68765 5.35601 1.60711C5.39997 1.32889 5.43294 1.047 5.50255 0.7761C5.54651 0.60404 5.62711 0.439302 5.72602 0.289207C5.83593 0.124469 6.03009 0.0658955 6.2096 0.00366107C6.71516 2.23386e-07 7.22439 0 7.73728 0ZM3.07366 2.1599C3.03703 2.18919 3.00039 2.21481 2.97109 2.2441C2.71464 2.4967 2.46186 2.75296 2.20542 3.00556C2.12848 3.07877 2.12116 3.14101 2.1871 3.22887C2.39958 3.51808 2.60107 3.81827 2.81722 4.10747C2.96009 4.29784 2.96009 4.47356 2.86118 4.68955C2.69632 5.03733 2.54612 5.39609 2.42523 5.75851C2.34463 5.99647 2.21274 6.12094 1.96729 6.15755C1.61926 6.20514 1.27489 6.27103 0.930525 6.32595C0.831611 6.34059 0.791312 6.38452 0.794975 6.48702C0.802302 6.83847 0.802302 7.18991 0.794975 7.53769C0.791312 7.66948 0.835274 7.72073 0.967159 7.73903C1.32252 7.79029 1.67421 7.8635 2.02957 7.91841C2.24571 7.95136 2.37394 8.06851 2.42889 8.27352C2.53513 8.66523 2.69266 9.03863 2.89782 9.39008C3.01138 9.58044 3.00039 9.75616 2.86851 9.93554C2.65602 10.2248 2.45453 10.5213 2.23839 10.8141C2.16878 10.9057 2.17611 10.9679 2.25671 11.0484C2.51315 11.2974 2.76227 11.5463 3.01138 11.8026C3.08465 11.8795 3.14693 11.8868 3.23486 11.8209C3.52427 11.6086 3.82468 11.4072 4.11043 11.1912C4.30093 11.0484 4.48044 11.0484 4.69292 11.1473C5.03363 11.3084 5.38166 11.4548 5.73702 11.5756C5.97881 11.6561 6.09604 11.7953 6.12901 12.0405C6.17663 12.3883 6.24258 12.7324 6.29753 13.0766C6.31218 13.1754 6.35981 13.2157 6.46238 13.212C6.81774 13.2083 7.1731 13.2047 7.52846 13.212C7.64935 13.2157 7.69698 13.1681 7.7153 13.0546C7.77025 12.6958 7.83619 12.3371 7.89481 11.9783C7.92778 11.7696 8.04134 11.6452 8.24284 11.5902C8.63483 11.4841 9.01217 11.334 9.3602 11.1253C9.55803 11.0082 9.73387 11.0228 9.91705 11.1583C10.2065 11.3743 10.5032 11.5756 10.7926 11.7879C10.8769 11.8502 10.9392 11.8538 11.0161 11.7733C11.2652 11.5134 11.5217 11.2608 11.7781 11.0082C11.855 10.9313 11.855 10.8691 11.7928 10.7849C11.5803 10.4957 11.3788 10.1955 11.1663 9.90625C11.0307 9.72321 11.0307 9.55481 11.126 9.34615C11.2945 8.98372 11.452 8.61764 11.5839 8.24057C11.6609 8.02458 11.7854 7.90743 12.0052 7.87082C12.3569 7.81591 12.705 7.75368 13.0567 7.70243C13.1702 7.68412 13.2215 7.64019 13.2178 7.51572C13.2105 7.16794 13.2105 6.82382 13.2178 6.47604C13.2215 6.33693 13.1629 6.29666 13.0383 6.27836C12.6866 6.2271 12.3386 6.16121 11.9869 6.10629C11.7744 6.07335 11.6609 5.95254 11.5839 5.75119C11.4447 5.37413 11.2909 4.99706 11.1187 4.63463C11.0234 4.43329 11.0234 4.26489 11.1553 4.08917C11.3678 3.79996 11.5693 3.50343 11.7854 3.21056C11.8514 3.11904 11.855 3.05681 11.7708 2.97627C11.5143 2.72733 11.2652 2.47839 11.0161 2.22214C10.9355 2.13794 10.8732 2.13794 10.7816 2.20383C10.4886 2.41982 10.1881 2.62849 9.89507 2.84448C9.73754 2.96163 9.57268 2.98725 9.39683 2.88841C9.01217 2.66876 8.60552 2.50402 8.17689 2.38687C7.99738 2.33928 7.89481 2.21847 7.86184 2.03177C7.79956 1.66203 7.73361 1.29594 7.675 0.926194C7.66034 0.82003 7.61638 0.77976 7.50648 0.77976C7.15478 0.783421 6.80309 0.787082 6.45506 0.77976C6.3305 0.776099 6.27555 0.81637 6.25723 0.940838C6.20594 1.28862 6.13633 1.63274 6.08871 1.97686C6.05574 2.21115 5.93484 2.33928 5.70771 2.42348C5.33769 2.55893 4.97501 2.71269 4.61599 2.88109C4.41083 2.97627 4.23865 2.98359 4.05548 2.84814C3.76972 2.63581 3.47665 2.43446 3.18723 2.22946C3.16159 2.21115 3.12129 2.18919 3.07366 2.1599Z"
          fill="#697E92"/>
    <path d="M9.99993 7.00373C9.98902 8.66388 8.65008 10 6.99824 10C5.33912 9.99636 3.98199 8.63475 4.00018 6.98917C4.01837 5.32174 5.36823 3.98198 7.00551 4.00018C8.67191 4.01475 10.0108 5.35815 9.99993 7.00373ZM6.99824 9.21726C8.21347 9.2209 9.20312 8.23428 9.21767 7.00737C9.23223 5.79503 8.22439 4.78293 7.00188 4.77929C5.78301 4.77564 4.77516 5.78775 4.78244 7.00373C4.78972 8.227 5.77937 9.21362 6.99824 9.21726Z"
          fill="#697E92"/>
</svg>
