<svg width="20" height="20" viewBox="0 0 20 20" fill="none" xmlns="http://www.w3.org/2000/svg">
    <path d="M18.6667 3.33331C18.9428 3.33331 19.1667 3.55717 19.1667 3.83331V4.49998C19.1667 4.77612 18.9428 4.99998 18.6667 4.99998H17.1667C16.8905 4.99998 16.6667 5.22384 16.6667 5.49998V6.99998C16.6667 7.27612 16.4428 7.49998 16.1667 7.49998H15.5C15.2239 7.49998 15 7.27612 15 6.99998V5.49998C15 5.22384 14.7761 4.99998 14.5 4.99998H13C12.7239 4.99998 12.5 4.77612 12.5 4.49998V3.83331C12.5 3.55717 12.7239 3.33331 13 3.33331H14.5C14.7761 3.33331 15 3.10946 15 2.83331V1.33331C15 1.05717 15.2239 0.833313 15.5 0.833313H16.1667C16.4428 0.833313 16.6667 1.05717 16.6667 1.33331V2.83331C16.6667 3.10946 16.8905 3.33331 17.1667 3.33331H18.6667ZM12.0833 9.16665C12.415 9.16654 12.733 9.03469 12.9674 8.80011C13.2018 8.56554 13.3334 8.24744 13.3333 7.91581C13.3332 7.58418 13.2014 7.26618 12.9668 7.03176C12.7322 6.79734 12.4141 6.6657 12.0825 6.66581C11.9183 6.66587 11.7557 6.69826 11.604 6.76115C11.4523 6.82404 11.3145 6.9162 11.1984 7.03235C11.0824 7.1485 10.9903 7.28637 10.9275 7.4381C10.8647 7.58983 10.8324 7.75244 10.8325 7.91665C10.8326 8.08085 10.865 8.24344 10.9278 8.39513C10.9907 8.54681 11.0829 8.68463 11.199 8.8007C11.3152 8.91678 11.4531 9.00884 11.6048 9.07162C11.7565 9.13441 11.9191 9.1667 12.0833 9.16665ZM15 11.2226C15 11.4473 14.7228 11.5537 14.5725 11.3866V11.3866C14.4162 11.2126 14.225 11.0734 14.0114 10.9781C13.7977 10.8829 13.5664 10.8336 13.3325 10.8336C13.0986 10.8336 12.8673 10.8829 12.6536 10.9781C12.44 11.0734 12.2488 11.2126 12.0925 11.3866L11.9174 11.5817C11.7189 11.8029 11.3725 11.8032 11.1737 11.5822L7.87163 7.91294C7.67302 7.69224 7.32697 7.69222 7.12833 7.9129L5.87163 9.3091C5.56508 9.64968 5 9.43283 5 8.9746V5.49998C5 5.22384 5.22386 4.99998 5.5 4.99998H10.3333C10.6095 4.99998 10.8333 4.77612 10.8333 4.49998V3.83331C10.8333 3.55717 10.6095 3.33331 10.3333 3.33331H5C4.55798 3.33331 4.13405 3.50891 3.82149 3.82147C3.50893 4.13403 3.33334 4.55795 3.33334 4.99998V15C3.33334 15.442 3.50893 15.8659 3.82149 16.1785C4.13405 16.4911 4.55798 16.6666 5 16.6666H15C15.442 16.6666 15.866 16.4911 16.1785 16.1785C16.4911 15.8659 16.6667 15.442 16.6667 15V9.66665C16.6667 9.3905 16.4428 9.16665 16.1667 9.16665H15.5C15.2239 9.16665 15 9.3905 15 9.66665V11.2226Z"
          fill="#4A6CD6"/>
</svg>
