<svg width="24" height="25" viewBox="0 0 24 25" fill="none" xmlns="http://www.w3.org/2000/svg">
    <path d="M11.29 20.5H4C3.46957 20.5 2.96077 20.2893 2.58569 19.9142C2.21062 19.5391 2 19.0304 2 18.5V6.5C2 5.96957 2.21062 5.46086 2.58569 5.08578C2.96077 4.71071 3.46957 4.5 4 4.5H20C20.5304 4.5 21.039 4.71071 21.4141 5.08578C21.7891 5.46086 22 5.96957 22 6.5V12.75"
          stroke="#7753F8" stroke-width="2" stroke-miterlimit="10"/>
    <path d="M2 10.5H22.01" stroke="#7753F8" stroke-width="2" stroke-miterlimit="10"/>
    <path d="M5 7.5H7" stroke="#7753F8" stroke-width="2" stroke-miterlimit="10"/>
    <path d="M8 7.5H10" stroke="#7753F8" stroke-width="2" stroke-miterlimit="10"/>
    <path d="M11 7.5H13" stroke="#7753F8" stroke-width="2" stroke-miterlimit="10"/>
    <path d="M20.8394 18.5C20.8447 18.3967 20.8447 18.2933 20.8394 18.19L22.5293 17.19L21.3992 15.24L19.7092 16.24C19.5388 16.118 19.358 16.011 19.1692 15.92V14H16.8992V15.92C16.7091 16.0087 16.5282 16.1159 16.3591 16.24L14.6692 15.24L13.5293 17.19L15.2292 18.19C15.2239 18.2933 15.2239 18.3967 15.2292 18.5C15.2292 18.6 15.2292 18.7 15.2292 18.8L13.5293 19.8L14.6692 21.75L16.3591 20.75C16.5261 20.8745 16.7074 20.9786 16.8992 21.06V22.99H19.1692V21.06C19.3598 20.9763 19.5409 20.8724 19.7092 20.75L21.3992 21.75L22.5293 19.8L20.8394 18.8C20.8194 18.7 20.8394 18.6 20.8394 18.5ZM17.9993 20C17.7026 20 17.4124 19.912 17.1658 19.7472C16.9191 19.5824 16.7271 19.3481 16.6135 19.074C16.5 18.7999 16.4702 18.4983 16.5281 18.2074C16.586 17.9164 16.7287 17.6491 16.9385 17.4393C17.1483 17.2296 17.4156 17.0867 17.7065 17.0288C17.9975 16.9709 18.2992 17.0007 18.5732 17.1142C18.8473 17.2277 19.0815 17.42 19.2463 17.6666C19.4112 17.9133 19.4993 18.2033 19.4993 18.5C19.4966 18.897 19.3376 19.277 19.0569 19.5578C18.7761 19.8385 18.3963 19.9974 17.9993 20Z"
          fill="#7753F8"/>
</svg>
