<svg width="13" height="12" viewBox="0 0 13 12" fill="none" xmlns="http://www.w3.org/2000/svg">
    <g clip-path="url(#clip0_230_950)">
        <path d="M9.9707 10H2.63737V2.66667H7.04404L7.7107 2H2.63737C2.46056 2 2.29099 2.07024 2.16597 2.19526C2.04094 2.32029 1.9707 2.48986 1.9707 2.66667V10C1.9707 10.1768 2.04094 10.3464 2.16597 10.4714C2.29099 10.5964 2.46056 10.6667 2.63737 10.6667H9.9707C10.1475 10.6667 10.3171 10.5964 10.4421 10.4714C10.5671 10.3464 10.6374 10.1768 10.6374 10V5L9.9707 5.66667V10Z"
              fill="black"/>
        <path d="M11.8126 1.94667L10.6892 0.82334C10.6394 0.77335 10.5801 0.733688 10.5149 0.706626C10.4497 0.679564 10.3798 0.665634 10.3092 0.665634C10.2386 0.665634 10.1687 0.679564 10.1035 0.706626C10.0383 0.733688 9.97908 0.77335 9.92922 0.82334L5.35922 5.42001L4.98922 7.02334C4.97346 7.10106 4.97512 7.18131 4.99408 7.25831C5.01303 7.33531 5.04882 7.40716 5.09887 7.46868C5.14891 7.53019 5.21196 7.57986 5.2835 7.61409C5.35503 7.64833 5.43326 7.66629 5.51256 7.66667C5.55354 7.67119 5.5949 7.67119 5.63589 7.66667L7.25256 7.31001L11.8126 2.70667C11.8625 2.65682 11.9022 2.59759 11.9293 2.53239C11.9563 2.46718 11.9703 2.39727 11.9703 2.32667C11.9703 2.25607 11.9563 2.18617 11.9293 2.12096C11.9022 2.05575 11.8625 1.99653 11.8126 1.94667ZM6.90589 6.69334L5.68589 6.96334L5.96922 5.75334L9.40922 2.29001L10.3492 3.23001L6.90589 6.69334ZM10.7259 2.85334L9.78589 1.91334L10.3026 1.38667L11.2492 2.33334L10.7259 2.85334Z"
              fill="black"/>
    </g>
    <defs>
        <clipPath id="clip0_230_950">
            <rect width="12" height="12" fill="white" transform="translate(0.636719)"/>
        </clipPath>
    </defs>
</svg>
