<svg width="14" height="14" viewBox="0 0 14 14" fill="none" xmlns="http://www.w3.org/2000/svg">
    <g clip-path="url(#clip0_659_821)">
        <g clip-path="url(#clip1_659_821)">
            <path d="M3.57176 3.32221L4.20349 2.93109C4.49102 2.7529 4.83357 2.68543 5.16719 2.74128C5.50082 2.79713 5.80272 2.97249 6.01654 3.23461L6.69907 4.07133C6.88296 4.29673 6.99167 4.57404 7.00994 4.86437C7.02821 5.15469 6.95513 5.44345 6.80094 5.69012L6.24041 6.58704C6.23349 6.59814 6.22866 6.61041 6.22615 6.62325C6.19073 6.80401 6.4239 7.19898 6.96887 7.74422C7.58342 8.35867 7.98453 8.55911 8.12294 8.47455L9.02321 7.91165C9.26981 7.75767 9.55841 7.68472 9.84856 7.70301C10.1387 7.7213 10.4159 7.82993 10.6412 8.01366L11.4744 8.69242C11.736 8.90555 11.9113 9.20639 11.9678 9.53905C12.0243 9.87172 11.9581 10.2136 11.7815 10.5011L11.3913 11.1359C11.2556 11.3568 11.0685 11.5417 10.8459 11.6746C10.6233 11.8076 10.3719 11.8847 10.113 11.8995C8.57592 11.9866 6.95737 11.1637 5.2531 9.4596C3.54808 7.75436 2.7247 6.13367 2.81391 4.59546C2.82883 4.33793 2.90552 4.08779 3.0375 3.86616C3.16948 3.64452 3.35287 3.45791 3.57218 3.3221L3.57176 3.32221ZM3.91071 3.86853C3.77912 3.95 3.66907 4.06195 3.58986 4.19492C3.51065 4.32789 3.46462 4.47797 3.45564 4.63248C3.37866 5.958 4.11969 7.41707 5.70765 9.00504C7.29445 10.592 8.75215 11.3328 10.0764 11.2575C10.2317 11.2487 10.3827 11.2024 10.5163 11.1225C10.6499 11.0427 10.7622 10.9317 10.8435 10.799L11.2335 10.1648C11.3287 10.01 11.3644 9.82589 11.334 9.64674C11.3036 9.46759 11.2092 9.30556 11.0684 9.19076L10.2351 8.51159C10.1138 8.41268 9.96456 8.35419 9.80836 8.34433C9.65215 8.33447 9.49678 8.37372 9.364 8.45659L8.46147 9.02098C7.96089 9.3286 7.32776 9.0124 6.51421 8.19837C5.82523 7.5098 5.5044 6.96484 5.59544 6.49986C5.61306 6.40995 5.64685 6.32414 5.69524 6.24639L6.25577 5.34947C6.33884 5.21664 6.37822 5.06113 6.36839 4.90477C6.35857 4.74841 6.30002 4.59905 6.20097 4.47766L5.51856 3.64136C5.40342 3.50017 5.24082 3.40573 5.06114 3.37565C4.88146 3.34558 4.69697 3.38194 4.54213 3.47794L3.91041 3.86905L3.91071 3.86853Z"
                  fill="currentColor"/>
        </g>
    </g>
    <defs>
        <clipPath id="clip0_659_821">
            <rect width="14" height="14" fill="white"/>
        </clipPath>
        <clipPath id="clip1_659_821">
            <rect width="12" height="12" fill="white" transform="translate(0 3.10596) rotate(-15)"/>
        </clipPath>
    </defs>
</svg>
