<svg width="15" height="14" viewBox="0 0 15 14" fill="none" xmlns="http://www.w3.org/2000/svg">
    <path d="M13.0352 2.1875H1.66016C1.41816 2.1875 1.22266 2.38301 1.22266 2.625V11.375C1.22266 11.617 1.41816 11.8125 1.66016 11.8125H13.0352C13.2771 11.8125 13.4727 11.617 13.4727 11.375V2.625C13.4727 2.38301 13.2771 2.1875 13.0352 2.1875ZM12.4883 3.70234V10.8281H2.20703V3.70234L1.82969 3.4084L2.36699 2.71797L2.95215 3.17324H11.7445L12.3297 2.71797L12.867 3.4084L12.4883 3.70234ZM11.7445 3.17188L7.34766 6.58984L2.95078 3.17188L2.36563 2.7166L1.82832 3.40703L2.20566 3.70098L6.87598 7.33223C7.01029 7.43657 7.17553 7.49321 7.34561 7.49321C7.51569 7.49321 7.68092 7.43657 7.81523 7.33223L12.4883 3.70234L12.8656 3.4084L12.3283 2.71797L11.7445 3.17188Z"
          fill="#575757"/>
</svg>
