<svg width="177" height="80" viewBox="0 0 177 80" fill="none" xmlns="http://www.w3.org/2000/svg">
    <path opacity="0.33"
          d="M51.7477 51.584C48.6702 54.6775 44.4127 56.5909 39.7088 56.5909C30.3328 56.5909 22.7427 49.0008 22.7427 39.6248C22.7427 35.4471 24.3532 31.652 26.7929 28.6702C28.4034 26.7089 30.2849 25.0665 32.6608 24.0141C34.7657 23.0892 37.2691 22.6587 39.7088 22.6587C44.3649 22.6587 48.5905 24.5403 51.652 27.5699L67.789 11.4808C60.6454 4.38504 50.8069 0 39.9639 0C18.1503 0 0.466675 17.6837 0.466675 39.4973C0.466675 61.3108 18.1503 78.9945 39.9639 78.9945C50.8069 78.9945 60.0075 73.3817 67.7571 67.5615L51.7477 51.584Z"
          fill="#1E5BFA"/>
    <path d="M74.6137 49.3836C71.4086 49.3836 68.7616 48.3152 66.6409 46.1785C64.5361 44.0418 63.4836 41.4267 63.4836 38.3333C63.4836 35.2398 64.5361 32.6407 66.6409 30.488C68.7457 28.3513 71.4086 27.283 74.6137 27.283C77.3563 27.283 79.7003 28.0483 81.6457 29.5791C83.591 31.1099 84.8348 33.0712 85.4088 35.479H80.4657C80.0352 34.2831 79.3176 33.3263 78.2812 32.6088C77.2447 31.8912 76.0169 31.5245 74.6137 31.5245C72.748 31.5245 71.2173 32.1623 70.0213 33.438C68.8254 34.7136 68.2354 36.3401 68.2354 38.3173C68.2354 40.2946 68.8254 41.921 70.0213 43.1967C71.2173 44.4723 72.748 45.1101 74.6137 45.1101C76.0328 45.1101 77.2606 44.7434 78.2812 44.0258C79.3176 43.3083 80.0511 42.3516 80.4657 41.1556H85.3929C84.8189 43.5634 83.5751 45.5247 81.6297 47.0555C79.7003 48.6182 77.3563 49.3836 74.6137 49.3836Z"
          fill="currentColor"/>
    <path d="M99.1539 49.3834C96.2678 49.3834 93.8441 48.315 91.8668 46.1624C89.9055 44.0097 88.9169 41.4106 88.9169 38.349C88.9169 35.2875 89.9055 32.6884 91.8668 30.5357C93.8281 28.383 96.2678 27.3147 99.1539 27.3147C100.605 27.3147 101.928 27.6336 103.14 28.2714C104.352 28.9092 105.293 29.6746 105.947 30.5835V27.7293H110.619V48.9688H105.947V46.1145C105.293 47.0234 104.368 47.7888 103.14 48.4267C101.928 49.0645 100.605 49.3834 99.1539 49.3834ZM95.4546 43.1806C96.6505 44.4881 98.1653 45.1419 99.9991 45.1419C101.833 45.1419 103.348 44.4881 104.544 43.1806C105.739 41.873 106.329 40.2625 106.329 38.3331C106.329 36.4037 105.739 34.7932 104.544 33.4856C103.348 32.1781 101.833 31.5243 99.9991 31.5243C98.1653 31.5243 96.6505 32.1781 95.4546 33.4856C94.2586 34.7932 93.6687 36.4037 93.6687 38.3331C93.6687 40.2625 94.2746 41.889 95.4546 43.1806Z"
          fill="currentColor"/>
    <path d="M115.339 48.9689V17.1096H120.011V48.9689H115.339Z" fill="currentColor"/>
    <path d="M124.731 48.9689V17.1096H129.403V48.9689H124.731Z" fill="currentColor"/>
    <path d="M153.401 46.1147V48.969H134.203V47.6933C134.203 46.6409 134.362 45.6523 134.697 44.7274C135.016 43.7866 135.398 42.9894 135.845 42.3196C136.291 41.6499 136.897 40.9324 137.695 40.167C138.492 39.4016 139.178 38.8116 139.752 38.3811C140.326 37.9506 141.139 37.3765 142.159 36.643C143.18 35.9095 143.929 35.3514 144.408 34.9847C145.572 34.1077 146.401 33.4539 146.911 33.0074C147.421 32.5609 147.964 32.0188 148.554 31.3491C149.128 30.6794 149.51 30.0096 149.702 29.308C149.893 28.6224 149.973 27.7773 149.973 26.7727C149.973 25.0984 149.415 23.743 148.298 22.7225C147.182 21.686 145.747 21.1758 143.993 21.1758C142.096 21.1758 140.501 21.7339 139.209 22.8501C137.918 23.9663 137.248 25.5768 137.184 27.6656H134.123C134.123 24.8592 135.048 22.5949 136.913 20.8728C138.763 19.1507 141.091 18.2896 143.866 18.2896C146.465 18.2896 148.649 19.055 150.403 20.5698C152.157 22.0847 153.034 24.2214 153.034 26.964C153.034 29.037 152.524 30.8069 151.488 32.2899C150.451 33.7728 148.585 35.5109 145.907 37.4881C145.364 37.8868 144.599 38.4289 143.61 39.0986C142.622 39.7843 141.872 40.3105 141.378 40.6932C140.884 41.0759 140.326 41.5702 139.704 42.1602C139.082 42.7502 138.604 43.3721 138.285 44.0099C137.966 44.6477 137.727 45.3493 137.583 46.1147H153.401Z"
          fill="currentColor"/>
    <path d="M169.41 48.9211V40.3424H153.05V37.9186L169.825 18.752H172.376V37.5041H176.618V40.3583H172.376V48.9371H169.41V48.9211ZM157.053 37.5041H169.41V23.4082L157.053 37.5041Z"
          fill="currentColor"/>
    <path opacity="0.33"
          d="M51.7637 51.5998C48.6862 54.6773 44.4287 56.5908 39.7247 56.6067C44.4287 56.5908 48.6862 54.6773 51.7637 51.5998Z"
          fill="url(#paint0_linear_1_1906)"/>
    <path opacity="0.33"
          d="M59.896 72.7119C59.1465 73.0787 58.3811 73.4135 57.6476 73.7005C36.1689 82.1039 18.4374 60.6252 19.7768 47.3903C20.3668 41.5542 23.1254 33.996 26.1551 29.4515C28.4512 26.6929 31.7839 22.6427 39.7088 22.6587C43.7909 22.6746 48.2876 24.1735 51.6521 27.5699L52.0507 27.1713C46.9481 22.2122 39.9799 19.1666 32.3101 19.1666C16.6196 19.1666 3.91095 31.8912 3.91095 47.5657C3.91095 62.2197 17.6879 74.2746 29.2007 77.5116C30.0139 77.7348 30.7952 77.974 31.5766 78.1175C33.4263 78.4523 35.2122 78.7553 36.8386 78.8829C42.9777 79.3931 47.6497 78.4523 52.9756 76.3316C55.9733 75.1357 59.4814 73.2062 62.0486 71.5798"
          fill="url(#paint1_linear_1_1906)"/>
    <path opacity="0.33"
          d="M51.7795 51.5839C48.702 54.6773 44.4445 56.6068 39.7406 56.6068C30.3646 56.6068 22.7745 49.0167 22.7745 39.6407C22.7745 37.3923 23.3644 34.6816 24.2733 32.7362C24.1617 32.9594 24.0501 33.1986 23.9385 33.4219C23.7312 33.8524 23.5239 34.2989 23.3326 34.7453C23.1731 35.1121 23.0136 35.4788 22.8701 35.8456C22.6947 36.2602 22.5353 36.6748 22.3758 37.0894C22.1526 37.6793 21.9453 38.2853 21.738 38.8753C21.4669 39.6725 21.2277 40.4858 21.0045 41.283C20.6537 42.5268 20.3667 43.7546 20.1594 44.9186C19.9999 45.7638 19.8883 46.5929 19.8086 47.3743C19.7129 48.4267 19.7288 49.6704 19.8564 50.7069C20.0318 52.3333 20.4145 53.7685 20.9088 55.2673C24.2893 65.1058 34.7177 75.4864 47.809 75.598C49.2442 75.6139 50.7271 75.5023 52.226 75.2472C53.1987 75.0877 54.1713 74.8645 55.16 74.5775C56.1326 74.3064 57.1053 73.9715 58.094 73.5569C59.2102 73.1105 60.3423 72.5683 61.4744 71.9464C63.3241 70.7984 65.5406 69.2516 67.7729 67.5773L51.7795 51.5839Z"
          fill="url(#paint2_linear_1_1906)"/>
    <defs>
        <linearGradient id="paint0_linear_1_1906" x1="49.9985" y1="49.8387" x2="41.4823" y2="58.3549"
                        gradientUnits="userSpaceOnUse">
            <stop stop-color="#7166CF"/>
            <stop offset="0.4693" stop-color="#3B44B9"/>
            <stop offset="1" stop-color="#D3E6F7"/>
        </linearGradient>
        <linearGradient id="paint1_linear_1_1906" x1="51.8145" y1="34.846" x2="12.0858" y2="74.5747"
                        gradientUnits="userSpaceOnUse">
            <stop offset="0.4928" stop-color="#3B44B9"/>
            <stop offset="1" stop-color="#D3E6F7"/>
        </linearGradient>
        <linearGradient id="paint2_linear_1_1906" x1="9.59948" y1="54.1656" x2="65.4071" y2="54.1656"
                        gradientUnits="userSpaceOnUse">
            <stop stop-color="#3B44B9"/>
            <stop offset="0.5084" stop-color="#3B44B9"/>
            <stop offset="1" stop-color="#99C6EF"/>
        </linearGradient>
    </defs>
</svg>
